<?xml version="1.0" encoding="UTF-8" ?>
<svg xmlns="http://www.w3.org/2000/svg" version="1.1" lang="en" width="520" height="760">
  <rect x="0" y="0" width="520" height="760" fill="white"></rect>
  <text x="240" y="25" style="font-family: 'Courier'; font-style: normal">calc</text>
  <text x="215" y="60" style="font-family: 'Courier'; font-style: normal">calc_lst1</text>
  <line x1="260" y1="35" x2="260" y2="50" stroke="black"></line>
  <text x="190" y="95" style="font-family: 'Courier'; font-style: normal">calc_lst1_itm1</text>
  <line x1="260" y1="70" x2="260" y2="85" stroke="black"></line>
  <text x="195" y="130" style="font-family: 'Courier'; font-style: normal">instruction</text>
  <line x1="260" y1="105" x2="250" y2="120" stroke="black"></line>
  <text x="505" y="130" style="font-family: 'Courier'; font-weight: bold; font-style: normal">;</text>
  <line x1="260" y1="105" x2="510" y2="120" stroke="black"></line>
  <text x="200" y="165" style="font-family: 'Courier'; font-style: normal">assignment</text>
  <line x1="250" y1="140" x2="250" y2="155" stroke="black"></line>
  <text x="15" y="200" style="font-family: 'Courier'; font-style: normal">assign_item</text>
  <line x1="250" y1="175" x2="70" y2="190" stroke="black"></line>
  <text x="10" y="235" style="font-family: 'Courier'; font-style: normal">id</text>
  <line x1="70" y1="210" x2="20" y2="225" stroke="black"></line>
  <text x="15" y="270" style="font-family: 'Courier'; font-weight: bold; font-style: normal">c</text>
  <line x1="20" y1="245" x2="20" y2="260" stroke="black"></line>
  <text x="45" y="235" style="font-family: 'Courier'; font-style: normal">assign_op</text>
  <line x1="70" y1="210" x2="90" y2="225" stroke="black"></line>
  <text x="85" y="270" style="font-family: 'Courier'; font-weight: bold; font-style: normal">=</text>
  <line x1="90" y1="245" x2="90" y2="260" stroke="black"></line>
  <text x="270" y="200" style="font-family: 'Courier'; font-style: normal">locigal_or</text>
  <line x1="250" y1="175" x2="320" y2="190" stroke="black"></line>
  <text x="265" y="235" style="font-family: 'Courier'; font-style: normal">locigal_and</text>
  <line x1="320" y1="210" x2="320" y2="225" stroke="black"></line>
  <text x="270" y="270" style="font-family: 'Courier'; font-style: normal">bitwise_or</text>
  <line x1="320" y1="245" x2="320" y2="260" stroke="black"></line>
  <text x="265" y="305" style="font-family: 'Courier'; font-style: normal">bitwise_and</text>
  <line x1="320" y1="280" x2="320" y2="295" stroke="black"></line>
  <text x="280" y="340" style="font-family: 'Courier'; font-style: normal">equality</text>
  <line x1="320" y1="315" x2="320" y2="330" stroke="black"></line>
  <text x="270" y="375" style="font-family: 'Courier'; font-style: normal">relational</text>
  <line x1="320" y1="350" x2="320" y2="365" stroke="black"></line>
  <text x="255" y="410" style="font-family: 'Courier'; font-style: normal">bitwise_shift</text>
  <line x1="320" y1="385" x2="320" y2="400" stroke="black"></line>
  <text x="305" y="445" style="font-family: 'Courier'; font-style: normal">sum</text>
  <line x1="320" y1="420" x2="320" y2="435" stroke="black"></line>
  <text x="230" y="480" style="font-family: 'Courier'; font-style: normal">mult</text>
  <line x1="320" y1="455" x2="250" y2="470" stroke="black"></line>
  <text x="145" y="515" style="font-family: 'Courier'; font-style: normal">power</text>
  <line x1="250" y1="490" x2="170" y2="505" stroke="black"></line>
  <text x="140" y="550" style="font-family: 'Courier'; font-style: normal">factor</text>
  <line x1="170" y1="525" x2="170" y2="540" stroke="black"></line>
  <text x="140" y="585" style="font-family: 'Courier'; font-style: normal">number</text>
  <line x1="170" y1="560" x2="170" y2="575" stroke="black"></line>
  <text x="165" y="620" style="font-family: 'Courier'; font-weight: bold; font-style: normal">2</text>
  <line x1="170" y1="595" x2="170" y2="610" stroke="black"></line>
  <text x="235" y="515" style="font-family: 'Courier'; font-style: normal">mult_lst1</text>
  <line x1="250" y1="490" x2="280" y2="505" stroke="black"></line>
  <text x="210" y="550" style="font-family: 'Courier'; font-style: normal">mult_lst1_itm1</text>
  <line x1="280" y1="525" x2="280" y2="540" stroke="black"></line>
  <text x="235" y="585" style="font-family: 'Courier'; font-style: normal">mult_item</text>
  <line x1="280" y1="560" x2="280" y2="575" stroke="black"></line>
  <text x="215" y="620" style="font-family: 'Courier'; font-style: normal">mult_op</text>
  <line x1="280" y1="595" x2="250" y2="610" stroke="black"></line>
  <text x="245" y="655" style="font-family: 'Courier'; font-weight: bold; font-style: normal">*</text>
  <line x1="250" y1="630" x2="250" y2="645" stroke="black"></line>
  <text x="295" y="620" style="font-family: 'Courier'; font-style: normal">power</text>
  <line x1="280" y1="595" x2="320" y2="610" stroke="black"></line>
  <text x="290" y="655" style="font-family: 'Courier'; font-style: normal">factor</text>
  <line x1="320" y1="630" x2="320" y2="645" stroke="black"></line>
  <text x="290" y="690" style="font-family: 'Courier'; font-style: normal">number</text>
  <line x1="320" y1="665" x2="320" y2="680" stroke="black"></line>
  <text x="315" y="725" style="font-family: 'Courier'; font-weight: bold; font-style: normal">4</text>
  <line x1="320" y1="700" x2="320" y2="715" stroke="black"></line>
  <text x="390" y="480" style="font-family: 'Courier'; font-style: normal">sum_lst1</text>
  <line x1="320" y1="455" x2="430" y2="470" stroke="black"></line>
  <text x="365" y="515" style="font-family: 'Courier'; font-style: normal">sum_lst1_itm1</text>
  <line x1="430" y1="490" x2="430" y2="505" stroke="black"></line>
  <text x="390" y="550" style="font-family: 'Courier'; font-style: normal">sum_item</text>
  <line x1="430" y1="525" x2="430" y2="540" stroke="black"></line>
  <text x="360" y="585" style="font-family: 'Courier'; font-style: normal">add_op</text>
  <line x1="430" y1="560" x2="390" y2="575" stroke="black"></line>
  <text x="370" y="620" style="font-family: 'Courier'; font-style: normal">plus</text>
  <line x1="390" y1="595" x2="390" y2="610" stroke="black"></line>
  <text x="385" y="655" style="font-family: 'Courier'; font-weight: bold; font-style: normal">+</text>
  <line x1="390" y1="630" x2="390" y2="645" stroke="black"></line>
  <text x="440" y="585" style="font-family: 'Courier'; font-style: normal">mult</text>
  <line x1="430" y1="560" x2="460" y2="575" stroke="black"></line>
  <text x="435" y="620" style="font-family: 'Courier'; font-style: normal">power</text>
  <line x1="460" y1="595" x2="460" y2="610" stroke="black"></line>
  <text x="430" y="655" style="font-family: 'Courier'; font-style: normal">factor</text>
  <line x1="460" y1="630" x2="460" y2="645" stroke="black"></line>
  <text x="430" y="690" style="font-family: 'Courier'; font-style: normal">number</text>
  <line x1="460" y1="665" x2="460" y2="680" stroke="black"></line>
  <text x="455" y="725" style="font-family: 'Courier'; font-weight: bold; font-style: normal">5</text>
  <line x1="460" y1="700" x2="460" y2="715" stroke="black"></line></svg>